<?xml version="1.0" standalone="no"?>
<!DOCTYPE svg PUBLIC "-//W3C//DTD SVG 20010904//EN"
 "http://www.w3.org/TR/2001/REC-SVG-20010904/DTD/svg10.dtd">
<svg version="1.0" xmlns="http://www.w3.org/2000/svg"
 width="600.000000pt" height="600.000000pt" viewBox="0 0 600.000000 600.000000"
 preserveAspectRatio="xMidYMid meet">

<g transform="translate(0.000000,600.000000) scale(0.100000,-0.100000)"
fill="#000000" stroke="none">
<path d="M2725 5862 c-11 -2 -33 -13 -48 -24 -21 -15 -37 -18 -63 -13 -20 3
-41 2 -47 -3 -7 -5 -52 -14 -102 -21 -49 -7 -104 -19 -122 -26 -20 -9 -34 -11
-38 -4 -9 14 -25 1 -25 -22 0 -15 -6 -20 -22 -19 -13 1 -34 2 -48 1 -24 -2
-24 -2 -6 -16 11 -8 15 -15 9 -15 -6 0 -19 -3 -29 -7 -13 -5 -16 -3 -11 10 9
24 -9 21 -27 -5 -11 -15 -12 -25 -5 -34 18 -22 -24 -55 -63 -49 -18 3 -27 3
-20 -1 17 -8 5 -24 -18 -24 -10 0 -20 -3 -22 -7 -1 -5 -16 -15 -33 -23 -19 -9
-39 -33 -52 -62 -14 -28 -32 -49 -45 -54 -13 -4 -27 -13 -33 -20 -5 -7 -32
-14 -60 -16 -50 -3 -50 -3 -55 -41 -4 -29 -12 -42 -38 -57 -18 -11 -34 -26
-36 -33 -13 -52 -32 -86 -83 -151 -52 -68 -61 -75 -94 -75 -44 -1 -68 -25 -76
-77 -3 -22 -16 -51 -30 -65 -25 -27 -30 -49 -18 -84 8 -27 -34 -90 -60 -90
-11 0 -18 -5 -16 -10 2 -6 6 -16 9 -24 3 -8 -2 -19 -10 -25 -22 -16 -32 -54
-19 -70 9 -10 9 -20 0 -39 -9 -21 -7 -38 11 -94 22 -64 32 -191 30 -361 -1
-27 8 -58 21 -82 19 -33 21 -44 11 -65 -8 -18 -9 -38 -1 -72 30 -140 30 -147
20 -170 -6 -13 -8 -35 -5 -47 3 -13 1 -27 -5 -31 -15 -9 -4 -52 24 -95 27 -43
25 -116 -5 -125 -9 -3 -26 -15 -36 -26 -18 -20 -18 -20 11 -5 38 20 59 7 80
-49 11 -27 22 -42 29 -38 7 4 7 1 -1 -7 -9 -10 -19 -6 -48 21 -19 19 -41 34
-47 34 -15 0 -40 -83 -27 -90 5 -4 9 -17 9 -31 0 -29 11 -31 28 -3 10 15 16
18 26 10 7 -6 15 -8 18 -5 3 3 6 -1 5 -8 -2 -51 4 -68 23 -68 22 0 23 -2 26
-80 2 -63 11 -116 24 -145 5 -11 17 -53 26 -93 13 -57 14 -76 5 -81 -9 -6 -8
-11 4 -21 9 -7 15 -23 14 -34 -1 -12 1 -29 6 -38 10 -24 11 -58 1 -85 -5 -17
-4 -23 7 -23 10 0 19 -17 26 -50 14 -67 14 -77 -4 -84 -8 -3 -15 -10 -15 -15
0 -6 6 -8 13 -5 23 8 34 -15 77 -165 28 -98 64 -190 113 -290 73 -151 87 -207
73 -285 -6 -32 -40 -65 -71 -70 -26 -4 -44 -29 -70 -96 -15 -38 -34 -79 -44
-92 -10 -13 -29 -50 -42 -83 -25 -62 -94 -145 -121 -145 -9 0 -42 -16 -73 -35
-32 -19 -82 -41 -111 -50 -29 -8 -83 -36 -120 -60 -52 -35 -88 -50 -158 -67
-108 -25 -168 -52 -160 -72 3 -8 42 -47 87 -88 439 -398 901 -634 1466 -748
80 -16 147 -27 149 -25 3 3 -1 13 -9 22 -8 11 -3 9 12 -4 17 -15 44 -24 84
-29 l60 -6 -60 62 c-111 115 -227 185 -396 240 -104 34 -119 44 -180 136 l-44
66 -50 -8 c-93 -13 -90 -14 -87 32 3 32 -5 56 -38 118 -23 42 -40 80 -36 83 3
3 8 -2 12 -11 3 -9 10 -16 14 -16 10 0 -17 58 -37 82 -17 19 -9 40 10 32 9 -3
12 4 11 23 -1 15 -2 28 -3 28 -1 0 -3 24 -5 53 -1 28 1 52 4 52 4 0 10 11 12
25 3 15 1 22 -5 18 -7 -4 -8 1 -2 13 11 27 15 95 4 88 -10 -6 -2 75 10 108 4
12 3 43 -2 69 -6 30 -6 58 0 76 6 15 7 37 3 48 -5 12 -2 29 6 42 7 11 15 36
17 55 2 19 7 39 11 46 4 7 4 17 1 22 -3 6 -2 10 3 10 11 0 24 -28 18 -38 -2
-4 8 -8 22 -9 27 -1 72 -43 72 -67 0 -7 10 -21 23 -32 90 -77 125 -103 131
-97 4 4 5 1 1 -7 -5 -16 19 -45 68 -81 15 -11 27 -27 27 -35 0 -8 4 -13 9 -10
11 7 42 -16 44 -34 4 -21 26 -58 27 -42 0 16 25 15 39 -2 9 -11 8 -17 -3 -28
-12 -13 -11 -16 6 -27 19 -12 20 -11 15 8 -3 12 -1 21 4 21 5 0 9 -4 9 -10 0
-22 2 -25 21 -32 11 -4 19 -13 18 -20 -3 -15 18 -68 26 -68 4 0 3 5 0 10 -3 6
1 10 10 10 8 0 18 -7 22 -16 3 -9 13 -14 24 -11 11 3 17 1 13 -4 -3 -5 1 -9 8
-9 7 0 19 -4 27 -9 12 -8 12 -12 2 -25 -9 -11 -10 -20 -2 -33 10 -17 10 -16
11 3 0 34 23 47 40 24 14 -20 37 -29 25 -10 -10 17 7 11 39 -13 50 -38 152
-93 137 -74 -19 24 1 21 28 -4 22 -21 147 -69 177 -69 8 0 14 -7 14 -15 0 -8
5 -15 10 -15 15 0 12 14 -8 36 -10 11 -17 25 -14 32 2 6 -3 12 -12 12 -10 0
-16 9 -16 24 0 29 29 37 116 30 57 -5 62 -4 67 17 5 18 11 20 32 15 15 -4 24
-3 21 2 -7 12 66 25 74 13 3 -4 13 -11 24 -14 15 -6 16 -10 6 -22 -10 -13 -9
-19 5 -35 12 -13 14 -20 5 -20 -7 0 -10 -8 -7 -20 3 -13 -1 -21 -14 -25 -10
-4 -19 -11 -19 -16 0 -6 4 -7 10 -4 20 12 -4 -59 -27 -81 -12 -12 -23 -24 -23
-27 0 -9 34 5 42 17 5 6 8 1 8 -11 0 -20 3 -21 26 -13 21 9 25 8 21 -4 -10
-26 22 -26 75 2 72 37 88 52 88 82 0 14 8 37 17 50 10 14 16 33 15 42 -4 21
26 126 39 133 5 4 9 23 9 43 0 52 10 81 25 76 9 -4 11 2 8 20 -3 15 0 33 6 40
7 8 11 23 9 33 -2 12 2 17 14 15 17 -3 31 12 34 35 3 17 -13 17 -19 1 -2 -7
-8 -9 -13 -5 -5 5 -1 15 10 23 17 12 22 12 37 -2 16 -14 20 -13 47 14 29 28
30 28 42 9 10 -17 10 -23 -6 -34 -17 -13 -17 -16 -4 -26 18 -14 24 -37 10 -37
-6 0 -10 -11 -10 -25 0 -16 -6 -25 -15 -25 -17 0 -20 -25 -5 -35 7 -4 4 -18
-6 -38 -40 -77 -40 -77 -19 -77 11 0 13 -8 8 -32 -8 -44 -22 -71 -23 -43 0 17
-2 17 -10 5 -14 -21 -12 -43 2 -34 8 5 9 2 3 -12 -4 -10 -9 -40 -10 -65 -2
-26 -8 -56 -14 -68 -7 -12 -9 -26 -6 -31 4 -6 -7 -30 -23 -54 -17 -24 -33 -58
-37 -75 -4 -17 -11 -31 -16 -31 -5 0 -9 -13 -9 -29 0 -17 -5 -33 -11 -37 -10
-6 -8 -26 8 -78 4 -14 1 -18 -10 -13 -11 4 -23 -7 -41 -40 -30 -53 -32 -60
-11 -43 8 7 15 18 15 26 0 7 5 16 11 20 8 5 10 -1 7 -20 -3 -14 -1 -26 3 -26
5 0 4 -12 -2 -27 -5 -14 -8 -32 -5 -39 3 -8 1 -16 -5 -19 -5 -4 -7 -11 -4 -16
4 -5 2 -9 -3 -9 -5 0 -9 -12 -9 -28 -1 -15 -3 -40 -6 -55 -4 -28 -3 -29 26
-23 16 3 33 6 38 6 4 0 13 18 19 40 6 22 15 40 21 40 6 0 6 7 -1 19 -12 24
-13 34 -1 27 5 -4 13 8 16 26 4 18 12 42 18 53 6 11 10 30 8 42 -1 14 13 38
41 69 25 28 42 54 40 65 -2 14 1 17 13 13 9 -4 23 2 35 16 22 25 26 20 9 -12
-9 -16 -7 -24 11 -40 13 -13 19 -26 15 -39 -4 -11 -2 -19 4 -19 6 0 11 -9 11
-20 0 -11 5 -20 11 -20 5 0 8 -4 4 -10 -3 -5 3 -25 13 -45 14 -25 18 -47 14
-80 -2 -26 0 -45 5 -45 16 0 111 35 221 80 110 46 109 44 86 103 -4 11 5 21
25 32 26 13 30 19 21 35 -17 31 -11 48 20 59 27 9 32 7 47 -15 14 -22 21 -24
54 -19 32 6 38 4 44 -14 3 -12 13 -21 21 -21 57 0 594 398 594 440 0 9 -120
85 -185 118 -58 29 -135 50 -269 72 -99 16 -123 24 -156 50 -21 16 -46 30 -56
30 -30 0 -39 11 -69 85 -40 99 -134 189 -314 300 l-44 27 6 56 c21 188 34 248
79 342 53 111 102 258 118 350 7 36 18 79 26 95 7 17 22 68 33 114 11 46 24
88 29 93 5 5 21 -9 37 -32 32 -46 53 -60 87 -60 21 1 20 2 -7 14 -16 7 -40 24
-52 37 -21 24 -48 99 -35 99 4 0 1 4 -7 9 -12 8 -8 37 23 178 21 92 44 178 52
190 8 12 16 35 18 50 9 68 20 95 39 102 18 7 18 8 4 14 -10 4 -17 17 -17 33 0
20 4 25 16 20 38 -15 67 -19 61 -9 -4 6 -1 13 6 16 22 8 65 -38 70 -74 2 -23
4 -16 5 21 1 31 -4 66 -12 80 -30 52 -56 113 -51 118 3 3 5 2 5 -2 0 -4 8 0
17 10 16 15 18 15 39 -9 36 -42 67 -159 60 -225 -5 -51 -4 -53 5 -22 13 42 8
105 -16 183 -17 59 -67 128 -88 124 -8 -1 -15 31 -21 96 -8 81 -7 100 5 108
11 6 15 39 16 141 2 126 23 259 44 283 5 5 9 28 9 51 0 24 5 46 12 50 7 5 4
10 -10 15 -26 10 -28 36 -6 67 13 18 13 22 1 22 -17 0 -27 71 -21 141 2 28 -2
61 -11 82 -8 20 -15 50 -15 67 0 17 -7 41 -14 53 -8 12 -18 54 -22 92 -4 39
-11 78 -16 88 -5 10 -11 43 -14 73 -5 74 -23 111 -78 164 -26 25 -55 59 -63
75 -9 17 -25 37 -37 45 -45 32 -96 83 -96 97 0 27 -40 73 -64 73 -17 0 -30 13
-50 50 -18 34 -34 50 -47 50 -10 0 -53 32 -94 72 -41 39 -103 87 -137 106 -35
18 -67 38 -73 43 -5 5 -20 9 -35 9 -14 0 -45 14 -69 30 -24 17 -50 30 -58 30
-8 0 -31 9 -53 20 -51 26 -109 38 -142 29 -21 -6 -28 -3 -33 11 -6 20 -52 42
-94 46 -102 9 -175 25 -206 43 -31 18 -50 20 -158 19 -67 0 -131 -3 -142 -6z
m45 -488 c8 -1 20 -3 25 -4 6 -1 15 -1 20 0 6 1 23 2 39 2 16 -1 42 6 57 14
34 17 43 18 33 2 -5 -8 -2 -9 9 -5 11 4 17 1 17 -9 0 -13 10 -15 65 -9 53 6
64 5 60 -6 -5 -14 35 -39 62 -39 7 0 13 -5 13 -11 0 -6 9 -8 20 -4 12 4 26 0
36 -9 17 -18 39 -22 29 -6 -3 6 3 10 14 10 11 0 23 -5 27 -11 3 -6 14 -9 24
-6 11 3 21 -1 24 -9 4 -10 14 -12 32 -8 23 6 25 4 20 -13 -5 -17 -2 -19 29
-15 25 3 35 0 35 -10 0 -8 19 -19 45 -27 24 -7 49 -19 56 -27 6 -8 18 -14 25
-14 8 0 14 -4 14 -8 0 -5 13 -9 28 -9 16 0 49 -9 74 -21 24 -12 50 -22 57 -22
7 0 9 -4 6 -10 -3 -5 2 -10 13 -10 22 0 49 -22 79 -65 12 -16 40 -43 63 -60
79 -57 98 -75 96 -92 0 -10 4 -17 9 -16 6 1 11 -15 13 -34 1 -19 5 -40 9 -46
4 -6 8 -27 10 -46 2 -19 8 -40 12 -46 5 -5 11 -24 14 -42 5 -25 3 -31 -8 -27
-7 3 -19 -3 -26 -14 -7 -11 -19 -18 -26 -15 -7 3 -13 -1 -13 -9 0 -9 9 -14 22
-14 18 1 23 -5 23 -26 1 -15 10 -36 20 -48 11 -12 21 -38 22 -58 1 -20 7 -38
13 -40 27 -9 90 -89 92 -117 1 -14 5 -25 8 -25 3 0 7 -19 9 -42 1 -23 5 -45 9
-48 4 -3 7 -30 6 -60 0 -41 -4 -55 -15 -55 -8 0 -15 10 -17 23 -4 29 -88 196
-108 217 -9 8 -11 15 -5 15 6 0 11 5 11 10 0 6 -3 9 -7 9 -23 -4 -35 3 -30 16
4 8 2 17 -4 20 -5 4 -7 10 -4 15 3 5 -2 16 -11 24 -8 9 -11 16 -5 16 7 0 8 8
2 23 -4 12 -7 37 -6 54 0 20 -5 35 -13 38 -10 3 -12 0 -8 -10 4 -11 -2 -15
-23 -15 -26 0 -28 -2 -28 -45 0 -26 5 -45 11 -45 7 0 17 -13 23 -30 13 -36 13
-36 -39 -9 -33 17 -52 20 -97 15 -31 -3 -60 -5 -64 -6 -18 0 6 -20 26 -21 22
0 22 0 1 -9 -11 -4 -65 -8 -119 -7 -67 0 -100 -3 -103 -11 -2 -7 -11 -12 -20
-12 -12 0 -13 3 -4 12 7 7 12 19 11 28 0 10 -2 11 -6 3 -2 -7 -11 -13 -18 -13
-8 0 -21 -7 -29 -16 -10 -10 -16 -11 -16 -4 0 8 -10 10 -25 8 -13 -3 -22 -1
-19 3 7 12 -19 11 -51 -1 -19 -7 -26 -16 -23 -28 3 -12 -1 -18 -12 -19 -13 -1
-16 4 -12 20 2 12 9 28 15 35 6 8 6 12 -2 12 -6 0 -17 -11 -23 -25 -6 -14 -14
-25 -17 -25 -4 0 -7 -9 -8 -20 -1 -11 -9 -30 -18 -42 l-17 -23 6 30 c4 20 3
25 -3 15 -4 -8 -11 -32 -15 -52 -4 -21 -12 -38 -18 -38 -16 0 -1 -13 18 -16
11 -2 14 3 9 14 -5 15 -4 15 12 0 13 -14 15 -20 5 -30 -7 -7 -12 -20 -12 -31
0 -17 1 -17 16 -3 17 18 28 21 19 6 -9 -15 8 -12 33 6 15 10 22 11 22 3 0 -8
4 -8 13 -1 7 6 35 12 62 13 28 1 54 4 59 7 5 3 25 6 45 8 27 3 32 1 21 -7 -11
-8 -7 -9 15 -4 17 4 47 9 68 12 21 3 55 13 75 23 26 13 41 15 50 8 8 -7 12 -7
12 1 0 6 9 11 21 11 11 0 17 5 14 10 -3 6 -4 10 -1 10 2 0 13 3 23 7 16 6 16
5 4 -10 -15 -19 -9 -22 18 -7 21 11 93 2 85 -11 -3 -5 4 -9 15 -9 12 0 21 -4
21 -10 0 -5 7 -10 15 -10 8 0 15 -4 15 -10 0 -5 10 -10 23 -10 18 0 19 -2 7
-10 -13 -8 -12 -10 3 -10 10 0 17 -6 15 -12 -3 -7 1 -19 9 -26 7 -8 11 -23 7
-37 -4 -16 0 -27 13 -35 13 -8 13 -10 2 -7 -14 5 -15 -1 -8 -36 5 -23 8 -45 9
-48 0 -3 -11 -4 -25 -1 -14 2 -25 0 -25 -7 0 -5 8 -8 18 -5 16 5 16 5 -1 -6
-9 -6 -15 -15 -12 -21 9 -14 -5 -11 -20 5 -8 7 -11 17 -7 20 3 4 -1 4 -10 1
-9 -4 -18 0 -22 10 -4 10 -12 15 -21 11 -8 -3 -28 -1 -43 5 -53 21 -82 28 -82
18 0 -5 9 -9 19 -9 29 0 33 -14 10 -33 -10 -9 -19 -26 -19 -37 0 -13 -7 -20
-20 -20 -16 0 -20 7 -20 38 0 26 -3 33 -9 23 -12 -18 -41 -23 -42 -8 0 7 -4 2
-9 -10 -5 -13 -14 -23 -20 -23 -6 0 -8 6 -4 13 6 9 4 9 -8 -1 -9 -7 -29 -12
-44 -12 -16 1 -54 -1 -84 -5 -30 -3 -68 -7 -85 -8 -16 -1 -34 -5 -40 -8 -5 -3
-29 -12 -53 -19 -26 -8 -57 -29 -77 -52 -37 -40 -39 -46 -27 -64 10 -15 162
-28 162 -14 0 5 -16 11 -35 11 -19 1 -39 3 -45 4 -5 1 -19 3 -30 4 -11 0 -20
8 -20 17 0 11 6 14 20 9 11 -4 20 -3 19 2 -4 22 2 32 16 26 9 -3 23 1 33 9 9
9 31 18 48 21 30 6 32 4 44 -36 16 -56 26 -66 71 -73 25 -4 40 -13 44 -25 4
-11 11 -17 16 -13 6 3 16 0 24 -6 8 -7 15 -10 15 -6 0 4 13 0 30 -9 26 -13 29
-14 24 0 -4 8 -2 15 4 15 5 0 13 -7 16 -16 4 -11 17 -15 48 -12 33 2 43 -1 46
-14 2 -12 -6 -19 -32 -24 -20 -3 -33 -10 -30 -15 7 -12 79 -11 124 1 110 28
135 37 132 48 -1 7 2 12 8 12 5 0 10 -5 10 -11 0 -5 5 -7 10 -4 6 3 10 1 10
-4 0 -20 39 -11 45 9 13 42 85 -8 79 -55 -1 -18 2 -22 17 -18 10 3 19 0 19 -6
0 -6 -10 -11 -21 -11 -21 0 -20 -2 7 -37 15 -21 32 -39 36 -41 14 -6 9 -31 -9
-41 -14 -8 -15 -12 -4 -25 7 -9 9 -16 4 -16 -5 0 -8 -12 -7 -27 1 -16 -3 -36
-8 -45 -5 -11 -5 -18 0 -18 5 0 9 -17 9 -37 0 -21 3 -48 6 -60 4 -17 2 -21
-11 -16 -15 6 -15 5 -3 -10 8 -10 11 -21 7 -25 -4 -4 -12 1 -17 11 -6 9 -15
17 -21 17 -6 0 -9 -3 -5 -6 3 -3 2 -17 -3 -30 -6 -15 -6 -24 0 -24 5 0 7 -7 4
-15 -4 -8 -10 -12 -15 -10 -9 6 -60 -97 -80 -162 -6 -24 -16 -43 -21 -43 -4 0
-8 -9 -8 -21 0 -12 -8 -23 -18 -26 -10 -2 -19 -14 -19 -26 -2 -21 -1 -22 13
-3 21 29 17 12 -7 -28 -11 -19 -18 -40 -14 -46 4 -6 1 -9 -7 -8 -7 2 -13 -6
-14 -17 -1 -38 -14 -75 -27 -72 -7 1 -11 -8 -11 -20 1 -13 -3 -23 -8 -23 -6 0
-8 -6 -5 -14 3 -8 0 -22 -7 -31 -11 -15 -14 -15 -27 -3 -21 21 -39 10 -39 -24
0 -41 -39 -165 -57 -184 -18 -17 -28 -94 -13 -94 6 0 10 9 10 20 0 17 32 40
57 40 5 0 1 -29 -11 -79 -7 -31 2 -45 20 -30 10 8 14 8 14 0 0 -6 -5 -11 -10
-11 -18 0 -50 -63 -39 -76 6 -8 4 -15 -6 -24 -8 -7 -12 -16 -9 -21 3 -5 0 -9
-5 -9 -6 0 -11 -9 -11 -21 0 -12 -16 -37 -35 -56 -19 -19 -35 -39 -35 -43 0
-5 -5 -12 -12 -16 -8 -5 -9 -2 -5 9 3 10 2 17 -3 17 -6 0 -10 -6 -10 -14 0 -8
-5 -16 -11 -18 -6 -2 -13 -15 -14 -28 -2 -14 -10 -38 -19 -55 -18 -34 -21 -69
-6 -60 6 3 11 -2 11 -12 4 -60 0 -82 -19 -103 -11 -12 -18 -29 -15 -36 4 -10
0 -12 -11 -8 -12 5 -15 2 -10 -10 4 -10 0 -18 -10 -22 -9 -3 -16 -13 -16 -21
0 -8 -4 -11 -10 -8 -5 3 -10 1 -10 -6 0 -6 -13 5 -30 26 -19 24 -30 32 -30 21
0 -9 5 -16 10 -16 6 0 10 -9 10 -19 0 -14 -6 -19 -20 -16 -32 6 -42 16 -37 36
3 10 -4 25 -16 36 -20 16 -20 16 -8 1 9 -12 10 -18 2 -18 -6 0 -12 -12 -12
-27 -1 -23 -2 -24 -6 -6 -2 12 -12 27 -21 35 -15 12 -16 11 -3 -5 23 -29 8
-28 -28 4 -35 30 -51 36 -51 19 0 -16 -32 -12 -52 7 -10 9 -18 11 -18 5 0 -6
5 -14 10 -17 6 -3 10 -15 10 -26 0 -17 -3 -18 -20 -9 -16 9 -19 8 -14 -7 3
-10 -2 -7 -10 7 -8 14 -15 20 -16 13 0 -14 -31 -6 -42 11 -11 16 -10 -16 1
-33 5 -7 14 -10 20 -7 12 8 14 4 5 -17 -3 -10 -15 -13 -37 -10 -28 3 -34 0
-45 -24 -11 -27 -12 -27 -7 10 3 31 1 36 -9 28 -7 -6 -15 -8 -19 -5 -3 3 -3
-12 0 -34 5 -35 3 -40 -13 -39 -10 1 -19 -2 -19 -8 -2 -29 -28 -86 -35 -76 -4
7 -13 11 -21 9 -9 -2 -14 6 -14 24 0 36 -15 48 -16 12 0 -28 -1 -28 -10 -6 -5
15 -5 30 1 42 6 10 9 31 9 47 l-1 28 -8 -30 -8 -30 -1 30 c-1 22 -4 26 -10 16
-5 -8 -7 -20 -4 -28 3 -8 -3 -23 -13 -34 -24 -27 -26 -46 -8 -83 15 -31 15
-31 -3 -8 -20 25 -38 20 -23 -7 5 -10 5 -23 -1 -32 -5 -7 -9 -25 -10 -39 l-1
-25 -10 28 c-5 15 -14 27 -20 27 -6 0 -8 9 -5 20 3 13 -2 25 -13 33 -15 10
-17 23 -14 67 l4 55 -18 -30 c-10 -16 -18 -40 -16 -53 1 -12 -2 -20 -7 -16 -5
3 -7 9 -4 14 9 14 -6 39 -20 34 -9 -4 -13 2 -11 20 2 14 -2 26 -8 26 -6 0 0
10 14 21 14 11 19 17 11 13 -11 -5 -13 -3 -8 12 5 14 2 12 -13 -6 -11 -14 -20
-31 -20 -37 0 -7 -4 -13 -10 -13 -5 0 -10 -15 -11 -32 0 -18 -3 -27 -6 -20 -2
6 -8 10 -13 7 -4 -3 -10 4 -13 15 -3 13 -1 18 6 13 6 -4 8 2 4 16 -4 17 -2 21
9 17 8 -3 13 -2 10 2 -2 4 2 18 10 32 7 14 13 21 14 17 0 -12 30 19 30 31 0 5
7 15 15 22 8 6 13 17 12 23 -1 7 6 11 16 9 9 -2 17 2 17 7 0 5 -11 8 -25 5
-18 -3 -25 0 -25 11 0 8 -5 15 -11 15 -5 0 -7 -5 -4 -10 12 -20 15 -60 5 -60
-6 0 -9 4 -6 9 5 8 -25 21 -51 21 -6 0 -14 -13 -18 -29 -5 -22 -11 -29 -26
-26 -10 2 -19 0 -19 -6 0 -5 -6 -9 -14 -9 -8 0 -26 -15 -40 -32 -14 -18 -26
-27 -26 -20 0 19 -41 5 -63 -22 -10 -11 -15 -14 -11 -6 7 13 5 13 -9 1 -9 -7
-17 -10 -18 -5 0 5 -10 -9 -20 -31 -24 -47 -19 -18 6 40 13 30 14 36 3 27 -8
-6 -20 -31 -27 -54 -9 -30 -15 -38 -22 -27 -5 8 -5 15 1 17 5 2 6 10 3 18 -3
7 -9 11 -14 8 -5 -3 -9 0 -9 6 0 7 -7 9 -16 6 -12 -5 -14 -1 -9 17 3 12 -4 5
-15 -15 -11 -21 -25 -38 -31 -38 -6 0 -6 6 0 19 6 10 7 21 4 25 -3 3 -1 6 7 6
9 0 10 3 1 13 -6 8 -8 17 -4 20 9 10 -10 8 -26 -2 -9 -6 -23 -4 -39 7 l-25 16
34 13 34 13 -35 -6 c-19 -4 -47 -7 -62 -7 -16 0 -28 -4 -28 -10 0 -6 -5 -5
-13 1 -7 6 -23 9 -35 5 -16 -4 -22 -1 -22 11 0 9 -6 13 -15 10 -8 -4 -17 1
-21 10 -4 11 -13 14 -25 11 -21 -7 -26 10 -6 19 9 5 9 7 0 12 -7 3 -15 5 -18
4 -9 -2 -45 46 -45 59 0 6 -11 13 -25 17 -18 4 -25 13 -25 30 0 13 -4 24 -10
24 -5 0 -10 9 -10 20 0 11 -9 29 -20 40 -11 11 -20 26 -20 34 0 8 -9 18 -21
21 -15 5 -19 13 -15 28 4 15 -7 35 -39 73 -27 31 -43 58 -39 67 3 8 -2 17 -11
21 -9 3 -13 11 -10 17 4 6 -3 17 -15 26 -15 11 -20 22 -16 37 4 15 -3 29 -23
48 -16 15 -36 51 -46 83 -9 31 -24 59 -32 62 -8 3 -12 12 -8 21 7 19 -14 132
-29 151 -9 12 -8 13 6 8 12 -4 15 -2 11 8 -3 8 -9 13 -13 10 -5 -3 -12 0 -16
6 -5 8 1 10 20 7 29 -6 36 12 11 32 -8 7 -12 16 -9 21 3 5 -2 9 -10 9 -18 0
-22 16 -5 22 7 2 7 12 0 31 -16 41 -4 79 22 75 16 -2 27 -19 43 -67 12 -35 27
-67 34 -71 7 -5 8 -10 2 -14 -5 -3 0 -25 14 -53 13 -27 24 -55 24 -63 0 -8 7
-24 15 -34 8 -11 13 -28 9 -38 -3 -10 -1 -18 4 -18 6 0 15 -12 21 -27 17 -43
51 -99 51 -84 0 10 6 9 27 -4 l26 -18 -21 31 c-12 16 -22 39 -22 51 0 15 -4
19 -17 14 -16 -6 -16 -5 -4 11 9 11 11 20 5 24 -5 4 -9 23 -8 42 1 19 -6 46
-16 60 -9 14 -20 40 -24 59 -3 19 -26 76 -50 127 -37 77 -48 93 -63 88 -10 -3
-14 -2 -8 3 17 14 14 45 -5 65 -17 19 -18 19 -29 1 -8 -13 -11 -14 -10 -3 3
27 -1 38 -17 54 -8 9 -17 35 -20 58 -2 23 -9 45 -15 49 -6 4 -9 11 -5 17 3 6
2 13 -3 17 -6 3 -10 18 -9 33 3 76 -13 194 -27 209 -9 8 -14 22 -11 30 3 8 1
11 -4 8 -22 -14 -8 15 20 42 29 27 41 73 20 73 -5 0 -10 5 -10 11 0 5 4 8 9 5
15 -10 20 36 5 51 -16 16 -19 33 -5 33 5 0 12 -8 14 -17 3 -10 5 -1 6 19 0 20
6 40 12 44 6 3 9 17 6 31 -3 17 -1 23 9 19 8 -3 25 6 38 19 13 13 26 21 30 18
3 -3 10 6 15 21 6 14 12 26 13 26 2 0 2 -22 1 -50 -1 -51 1 -54 45 -50 21 1
64 -25 73 -45 2 -5 6 -9 9 -8 3 1 14 5 24 9 12 5 17 4 13 -3 -4 -6 3 -9 16 -8
33 4 34 5 15 16 -10 5 -18 16 -18 24 0 18 43 32 48 16 3 -9 8 -9 17 -1 10 8
15 8 20 0 5 -8 11 -7 22 2 9 7 26 14 37 15 46 4 72 10 103 26 17 9 40 14 49
10 11 -4 15 -3 11 4 -10 16 14 21 46 10 15 -5 35 -6 45 -2 9 4 33 8 52 10 124
8 170 18 170 36 0 58 -149 146 -201 118 -19 -10 -21 -9 -16 5 6 15 4 15 -21 2
-32 -16 -52 -11 -52 12 0 14 -2 14 -9 3 -6 -9 -31 -15 -73 -16 -34 -2 -75 -8
-90 -14 -24 -9 -28 -8 -29 7 0 10 -3 12 -6 4 -2 -6 -10 -9 -16 -5 -7 4 -8 0
-4 -11 4 -10 3 -15 -3 -11 -6 3 -10 2 -10 -4 0 -6 -7 -7 -17 -4 -12 5 -14 3
-8 -7 6 -10 4 -12 -8 -7 -9 3 -18 1 -21 -6 -5 -9 -7 -9 -12 1 -3 6 -12 12 -20
12 -8 0 -14 -6 -14 -12 0 -7 -6 -4 -12 6 -9 15 -7 22 6 32 19 13 5 30 -16 19
-27 -13 49 47 82 66 27 15 29 18 10 13 -14 -3 -38 -12 -54 -20 -16 -7 -32 -11
-37 -8 -5 3 -9 1 -9 -4 0 -4 -20 -19 -45 -31 -44 -22 -57 -45 -35 -67 14 -14
-9 -42 -40 -46 -20 -2 -25 2 -26 20 -2 30 -13 40 -25 22 -10 -13 -10 -13 -6 0
2 8 0 26 -6 40 -5 14 -11 38 -13 54 -4 24 -2 27 11 16 12 -10 15 -10 15 3 0
10 6 14 15 11 17 -7 21 11 4 21 -11 7 -8 58 6 88 4 10 19 23 34 29 21 9 23 12
9 15 -26 6 -22 20 9 28 15 3 35 15 44 26 9 11 25 21 36 24 51 10 119 31 123
37 3 4 22 -1 42 -12 20 -10 49 -21 65 -24 15 -2 28 -5 28 -6 0 -8 62 -5 72 2
8 6 33 2 70 -11 57 -20 134 -35 163 -32 8 1 23 1 33 2 11 0 15 5 10 12 -4 7
-6 19 -5 29 2 9 -2 19 -8 23 -5 3 -10 14 -10 23 0 12 4 10 13 -7 6 -13 20 -25
30 -27 15 -2 17 3 13 29 l-6 32 17 -32 c19 -37 38 -45 28 -12 -5 14 -3 19 3
15 6 -4 8 2 4 16 -5 20 -6 21 -12 3 -8 -22 -13 -16 -40 58 -12 31 -26 57 -31
57 -6 0 -7 -10 -4 -22 7 -23 7 -23 -8 -3 -15 20 -16 20 -25 -4 l-9 -25 -6 25
c-7 25 -63 69 -88 69 -10 0 -11 -2 -2 -8 18 -11 35 -62 38 -112 3 -42 2 -43
-9 -18 -13 30 -48 67 -81 84 -21 11 -165 11 -183 0 -6 -3 -18 -3 -27 0 -9 4
-12 10 -7 13 6 3 -27 6 -71 6 -94 0 -138 -17 -189 -71 -24 -25 -34 -30 -41
-21 -6 8 -7 4 -4 -10 3 -13 2 -23 -3 -23 -9 0 -41 -48 -44 -66 -1 -7 -5 -17
-9 -20 -4 -4 -7 -17 -7 -30 0 -12 -7 -25 -15 -28 -18 -6 -17 23 0 37 6 5 -1 7
-15 5 -20 -4 -25 0 -26 18 -1 17 2 21 15 17 11 -4 10 -1 -4 10 -16 13 -18 20
-9 34 7 12 8 25 0 45 -8 21 -7 31 6 45 8 10 23 53 32 96 10 42 20 77 23 77 2
0 3 -28 1 -62 -2 -43 1 -63 10 -65 9 -4 12 15 12 71 0 63 3 79 20 96 12 12 18
25 15 29 -2 5 1 11 9 14 7 3 16 14 18 25 7 24 -17 20 -26 -4 -3 -8 -11 -14
-17 -14 -7 0 -5 8 6 20 10 11 14 20 9 20 -5 0 0 8 11 16 19 14 19 16 3 28 -16
11 -16 15 -2 34 11 16 12 27 5 39 -10 17 -10 17 -11 1 0 -10 -4 -18 -10 -18
-13 0 -13 12 2 47 20 48 18 63 -8 63 -29 0 -30 10 -4 38 11 12 20 26 20 32 0
5 9 19 21 31 15 15 19 29 16 47 -3 15 0 36 5 47 16 31 46 56 53 45 3 -6 1 -10
-5 -10 -7 0 -10 -6 -7 -14 3 -7 0 -19 -6 -25 -8 -8 -8 -11 0 -11 7 0 20 14 30
30 9 17 30 36 45 42 14 7 24 16 21 21 -2 4 8 5 23 1 17 -5 25 -3 21 3 -4 6 0
16 9 23 8 7 12 20 9 27 -3 10 1 13 13 11 9 -2 17 -11 17 -20 0 -9 3 -19 7 -23
9 -10 20 52 13 75 -6 17 -3 19 23 14 31 -6 102 11 102 25 0 4 22 13 50 21 27
7 47 17 45 21 -4 6 67 29 105 34 38 4 92 28 80 35 -8 5 -7 9 5 14 9 3 21 4 26
0 5 -3 9 2 9 12 0 14 2 15 23 2 23 -15 57 -13 57 3 0 5 7 9 15 9 8 0 15 4 15
8 0 18 48 31 79 22 29 -8 31 -7 31 16 0 15 4 23 10 19 6 -4 17 -1 25 5 8 7 15
9 15 4 0 -5 6 0 12 11 12 19 12 19 18 -5 3 -14 12 -26 20 -26z m-150 6 c0 -11
-79 -34 -88 -26 -3 3 9 9 27 12 17 4 34 11 37 15 7 12 24 11 24 -1z m655 -60
c3 -5 2 -10 -4 -10 -5 0 -13 5 -16 10 -3 6 -2 10 4 10 5 0 13 -4 16 -10z m341
-135 c16 -12 16 -14 3 -15 -9 0 -22 7 -29 15 -16 19 0 19 26 0z m324 -203 c-7
-3 -16 2 -21 9 -16 25 -9 32 12 13 13 -12 16 -20 9 -22z m60 -42 c0 -5 -2 -10
-4 -10 -3 0 -8 5 -11 10 -3 6 -1 10 4 10 6 0 11 -4 11 -10z m-2333 -447 c-15
-50 -31 -71 -22 -28 7 32 26 77 31 72 2 -1 -2 -21 -9 -44z m2450 5 c-3 -8 -6
-5 -6 6 -1 11 2 17 5 13 3 -3 4 -12 1 -19z m-2490 -520 c-3 -8 -6 -5 -6 6 -1
11 2 17 5 13 3 -3 4 -12 1 -19z m2315 -110 c-8 -8 -9 -4 -5 13 4 13 8 18 11
10 2 -7 -1 -18 -6 -23z m-252 -65 c-1 -38 -1 -38 -14 -13 -8 14 -12 28 -10 32
3 5 1 8 -5 8 -5 0 -12 -15 -14 -32 -4 -32 -4 -32 -5 5 -2 33 0 37 23 37 22 0
25 -4 25 -37z m196 -40 c11 -17 20 -42 19 -55 -1 -19 -10 -25 -56 -37 -37 -9
-68 -11 -94 -6 -30 7 -34 10 -18 12 29 5 72 57 80 95 8 38 40 35 69 -9z
m-1706 23 c0 -15 -14 -35 -21 -30 -15 9 -10 34 6 34 8 0 15 -2 15 -4z m188
-35 c12 -7 32 -9 43 -6 18 6 19 4 10 -13 -9 -17 -7 -19 17 -14 22 4 25 2 15
-8 -7 -7 -31 -15 -55 -17 -24 -2 -50 -6 -58 -9 -8 -3 -32 -8 -52 -11 l-38 -5
15 29 c8 15 15 38 15 49 0 18 5 21 33 20 17 -2 42 -8 55 -15z m-331 -62 l31
-49 -24 -6 c-37 -9 -88 4 -102 26 -15 24 -7 44 14 36 9 -3 14 1 14 13 0 17 13
29 30 30 3 0 19 -22 37 -50z m-460 9 c-3 -7 -5 -2 -5 12 0 14 2 19 5 13 2 -7
2 -19 0 -25z m5 -56 c-7 -2 -13 -18 -13 -35 -1 -19 -3 -24 -6 -14 -7 28 6 69
19 61 9 -6 9 -9 0 -12z m41 -7 c-3 -9 -8 -14 -10 -11 -3 3 -2 9 2 15 9 16 15
13 8 -4z m2202 5 c3 -5 1 -10 -4 -10 -6 0 -11 5 -11 10 0 6 2 10 4 10 3 0 8
-4 11 -10z m-2355 -380 c0 -5 -4 -10 -10 -10 -5 0 -10 5 -10 10 0 6 5 10 10
10 6 0 10 -4 10 -10z m-15 -80 c3 -5 1 -10 -4 -10 -6 0 -11 5 -11 10 0 6 2 10
4 10 3 0 8 -4 11 -10z m85 -84 c0 -17 -14 -29 -23 -20 -8 8 3 34 14 34 5 0 9
-6 9 -14z m2675 -106 c3 -5 1 -10 -4 -10 -6 0 -11 5 -11 10 0 6 2 10 4 10 3 0
8 -4 11 -10z m-2614 -140 c1 -5 3 -14 4 -20 1 -5 3 -14 4 -20 0 -5 7 -10 15
-10 39 0 25 -34 -23 -60 -21 -11 -23 -10 -18 5 4 9 7 24 7 33 0 14 2 14 9 3 5
-7 14 -10 20 -6 8 4 3 13 -14 27 -25 19 -35 58 -15 58 6 0 11 -4 11 -10z
m2339 -740 c0 -5 -8 -10 -17 -10 -15 0 -16 2 -3 10 19 12 20 12 20 0z m-1160
-514 c0 -3 -4 -8 -10 -11 -5 -3 -10 -1 -10 4 0 6 5 11 10 11 6 0 10 -2 10 -4z
m640 -34 c0 -13 2 -14 9 -4 6 10 12 8 23 -10 14 -21 14 -25 0 -38 -14 -13 -15
-12 -9 3 3 9 2 19 -3 22 -6 4 -10 -8 -10 -25 0 -41 -15 -31 -33 24 -11 33 -12
46 -4 49 17 6 27 -2 27 -21z m-86 -58 c3 -8 2 -12 -4 -9 -6 3 -10 10 -10 16 0
14 7 11 14 -7z m-1297 -33 c-10 -4 -27 17 -27 33 0 5 8 1 19 -10 10 -10 14
-21 8 -23z m328 29 c-3 -5 -10 -10 -16 -10 -5 0 -9 5 -9 10 0 6 7 10 16 10 8
0 12 -4 9 -10z m863 -30 c-12 -37 -15 -38 -16 -2 0 32 6 44 18 37 5 -3 4 -19
-2 -35z m-610 -38 c-5 -19 -18 -44 -29 -55 l-19 -21 0 28 c0 15 4 25 10 21 6
-4 10 6 10 24 0 16 4 32 10 36 5 3 6 13 3 23 -5 14 -3 13 9 -2 12 -15 13 -28
6 -54z m639 46 c-3 -8 -6 -5 -6 6 -1 11 2 17 5 13 3 -3 4 -12 1 -19z m-567 3
c0 -5 -7 -11 -14 -14 -10 -4 -13 -1 -9 9 6 15 23 19 23 5z m-335 -11 c3 -5 1
-10 -4 -10 -6 0 -11 5 -11 10 0 6 2 10 4 10 3 0 8 -4 11 -10z m485 -54 c0 -3
-4 -8 -10 -11 -5 -3 -10 -1 -10 4 0 6 5 11 10 11 6 0 10 -2 10 -4z m310 -32
c0 -8 -4 -12 -10 -9 -5 3 -10 10 -10 16 0 5 5 9 10 9 6 0 10 -7 10 -16z m-310
-24 c0 -5 -5 -10 -11 -10 -5 0 -7 5 -4 10 3 6 8 10 11 10 2 0 4 -4 4 -10z
m307 -35 c0 -8 -4 -15 -9 -15 -4 0 -8 7 -8 15 0 8 4 15 8 15 5 0 9 -7 9 -15z
m600 -24 c-12 -9 -25 -15 -29 -13 -5 1 -8 -3 -8 -9 0 -6 7 -8 15 -5 44 18 51
18 31 2 -27 -22 -53 -20 -66 4 -9 16 -8 20 5 20 8 0 15 4 15 8 0 5 13 9 30 9
l30 0 -23 -16z m-67 -31 c0 -5 -5 -10 -11 -10 -5 0 -7 5 -4 10 3 6 8 10 11 10
2 0 4 -4 4 -10z m-2153 -225 c-4 -8 -12 -15 -19 -14 -10 0 -10 2 0 6 6 2 12
12 12 21 0 8 3 13 6 9 4 -3 4 -13 1 -22z m953 5 c8 -5 12 -11 10 -14 -3 -2
-14 2 -24 10 -22 15 -10 19 14 4z m-900 -131 c0 -11 -4 -18 -10 -14 -5 3 -7
12 -3 20 7 21 13 19 13 -6z m1560 -29 c0 -13 -20 -13 -40 0 -12 8 -9 10 13 10
15 0 27 -4 27 -10z m-1555 -87 c-14 -35 -15 -36 -9 -6 4 23 1 34 -12 41 -11 6
-15 16 -11 26 6 15 9 14 26 -3 19 -19 19 -23 6 -58z m235 57 c0 -5 -4 -10 -10
-10 -5 0 -10 5 -10 10 0 6 5 10 10 10 6 0 10 -4 10 -10z m-224 -96 c-8 -21
-15 -34 -15 -28 -1 15 20 76 25 71 2 -2 -2 -21 -10 -43z m19 -41 c-9 -50 -17
-34 -9 18 4 24 9 38 12 31 2 -7 1 -29 -3 -49z m14 -36 c-5 -20 -12 -37 -15
-37 -6 0 5 59 13 73 11 18 12 -1 2 -36z m33 -46 c7 10 8 3 3 -23 -4 -29 -3
-37 7 -33 7 3 19 1 27 -4 12 -8 13 -16 2 -52 l-13 -43 -14 24 c-7 14 -13 33
-14 43 0 9 -5 17 -10 17 -6 0 -8 11 -4 25 5 21 3 24 -12 18 -14 -5 -16 -3 -11
11 4 10 10 30 15 44 7 26 7 26 10 -7 3 -27 6 -31 14 -20z m2102 -206 c-4 -8
-8 -15 -10 -15 -2 0 -4 7 -4 15 0 8 4 15 10 15 5 0 7 -7 4 -15z"/>
<path d="M1850 4935 c-7 -9 -10 -18 -7 -22 8 -7 37 15 37 28 0 14 -16 11 -30
-6z"/>
<path d="M1736 4612 c-3 -5 1 -9 9 -9 8 0 12 4 9 9 -3 4 -7 8 -9 8 -2 0 -6 -4
-9 -8z"/>
<path d="M4050 4458 c0 -31 11 -68 19 -68 6 0 7 14 2 73 -2 25 -21 21 -21 -5z"/>
<path d="M4070 4366 c0 -9 5 -16 10 -16 6 0 10 4 10 9 0 6 -4 13 -10 16 -5 3
-10 -1 -10 -9z"/>
<path d="M2440 4106 c0 -2 8 -10 18 -17 15 -13 16 -12 3 4 -13 16 -21 21 -21
13z"/>
<path d="M3803 3963 c9 -2 23 -2 30 0 6 3 -1 5 -18 5 -16 0 -22 -2 -12 -5z"/>
<path d="M3525 3930 c-3 -6 1 -7 9 -4 18 7 21 14 7 14 -6 0 -13 -4 -16 -10z"/>
<path d="M2203 3923 c9 -2 23 -2 30 0 6 3 -1 5 -18 5 -16 0 -22 -2 -12 -5z"/>
<path d="M2275 3908 c17 -6 45 -19 63 -29 17 -10 32 -15 32 -10 0 10 -92 51
-112 50 -7 0 1 -5 17 -11z"/>
<path d="M3474 3898 l-19 -21 28 18 c28 18 33 25 19 25 -5 0 -17 -10 -28 -22z"/>
<path d="M3650 3580 c0 -5 7 -10 16 -10 8 0 12 5 9 10 -3 6 -10 10 -16 10 -5
0 -9 -4 -9 -10z"/>
<path d="M1915 3531 c-8 -14 7 -18 40 -10 17 3 26 8 20 9 -5 1 -20 3 -32 6
-12 2 -25 0 -28 -5z"/>
<path d="M4226 3315 c4 -8 8 -15 10 -15 2 0 4 7 4 15 0 8 -4 15 -10 15 -5 0
-7 -7 -4 -15z"/>
<path d="M1540 3305 c0 -8 5 -15 10 -15 6 0 10 7 10 15 0 8 -4 15 -10 15 -5 0
-10 -7 -10 -15z"/>
<path d="M3243 3263 c-20 -7 -15 -47 8 -76 11 -15 23 -26 27 -26 21 3 35 -5
81 -50 28 -27 51 -43 51 -35 0 23 -33 69 -75 105 -22 19 -41 37 -43 41 -10 21
-39 45 -49 41z"/>
<path d="M4247 3200 c3 -11 7 -20 9 -20 2 0 4 9 4 20 0 11 -4 20 -9 20 -5 0
-7 -9 -4 -20z"/>
<path d="M3402 3008 c0 -7 -1 -37 -3 -66 -1 -44 -6 -56 -31 -77 -16 -13 -45
-27 -66 -30 -20 -3 -60 -10 -88 -16 -27 -5 -64 -9 -81 -7 -28 2 -30 4 -20 25
7 16 19 23 38 23 15 0 31 5 35 11 6 11 35 8 82 -6 32 -11 29 18 -5 41 -30 20
-128 29 -138 14 -4 -6 -13 -10 -21 -10 -9 0 -27 -14 -41 -30 -81 -97 -221 -88
-355 23 -17 15 -39 27 -47 27 -13 0 -13 -2 -3 -9 10 -6 5 -10 -16 -14 -16 -3
-36 -12 -44 -20 -7 -8 -31 -22 -51 -32 -33 -16 -41 -16 -65 -4 -15 8 -30 18
-34 24 -17 23 -6 -33 12 -63 26 -42 62 -56 125 -47 88 12 185 8 185 -7 0 -5 8
-7 19 -3 10 3 23 -1 30 -9 8 -10 23 -13 46 -9 25 4 41 0 60 -16 20 -15 32 -18
45 -11 9 5 21 6 25 2 5 -4 5 1 2 11 -5 14 -2 16 17 11 19 -4 26 -1 31 15 3 12
9 21 13 22 4 0 25 2 47 5 22 2 60 7 85 11 25 3 47 6 50 6 3 -1 22 -4 42 -7 43
-7 93 12 125 46 23 24 29 70 18 138 -5 35 -21 61 -23 38z m-755 -180 c-15 -9
-19 -4 -11 16 5 14 9 15 15 5 5 -8 3 -17 -4 -21z"/>
<path d="M4030 2649 c0 -5 5 -7 10 -4 6 3 10 8 10 11 0 2 -4 4 -10 4 -5 0 -10
-5 -10 -11z"/>
<path d="M2610 2595 c-31 -23 -35 -24 -52 -8 -10 9 -18 12 -18 7 0 -5 -9 -20
-20 -34 -11 -14 -19 -19 -18 -11 2 7 -3 16 -11 19 -8 2 -11 0 -8 -5 4 -6 -6
-21 -21 -34 l-27 -24 20 24 20 24 -22 -12 c-18 -9 -22 -8 -26 7 -3 10 -5 5 -7
-13 -1 -16 -4 -24 -7 -17 -2 6 -9 12 -15 12 -6 0 -8 -6 -5 -12 3 -8 -4 -13
-19 -13 -14 0 -19 4 -13 9 19 20 8 28 -13 10 -12 -10 -18 -13 -14 -6 8 14 -10
17 -19 2 -9 -15 -27 -12 -19 3 4 6 -2 3 -14 -7 -12 -11 -22 -14 -22 -8 0 12
-63 5 -92 -10 -11 -5 -18 -5 -18 1 0 6 -7 8 -16 4 -11 -4 -12 -8 -4 -13 8 -5
7 -9 -5 -13 -9 -4 -13 -3 -10 3 3 6 -4 10 -17 10 -21 1 -20 2 7 15 17 7 24 14
17 14 -7 1 -22 -4 -33 -10 -20 -10 -20 -11 -3 -30 9 -10 13 -19 9 -19 -5 0 0
-6 10 -14 10 -7 16 -20 13 -28 -7 -16 27 -42 42 -33 6 4 10 2 10 -4 0 -6 16
-18 35 -27 34 -16 48 -34 23 -30 -23 3 -78 31 -78 38 0 20 -18 5 -23 -19 -6
-35 11 -54 36 -39 13 8 20 8 26 -2 4 -8 11 -14 14 -13 14 1 81 -31 94 -45 8
-8 21 -14 29 -14 8 0 14 -4 14 -8 0 -28 257 -108 278 -87 4 4 -5 17 -20 30
-16 13 -28 32 -28 42 0 13 3 14 12 5 19 -19 28 -14 28 17 0 17 5 33 10 36 6 4
10 -9 10 -31 0 -41 16 -37 22 6 2 17 10 25 24 26 12 1 27 5 35 10 8 4 30 9 49
10 75 4 108 5 175 6 39 0 84 0 100 1 17 0 57 -2 90 -5 32 -3 69 -2 82 3 30 11
47 4 63 -27 7 -13 17 -24 21 -24 8 0 7 6 -6 60 -6 24 -6 24 9 6 24 -30 19 -64
-13 -97 -16 -16 -24 -29 -17 -29 14 0 66 57 67 74 0 6 4 2 9 -9 8 -18 9 -18
10 5 2 14 2 28 1 33 0 4 3 7 9 7 5 0 10 -11 10 -25 0 -28 -32 -65 -56 -65 -8
0 -12 -5 -8 -11 3 -6 19 -9 35 -7 16 3 29 0 29 -5 0 -6 5 -6 13 0 19 15 75 24
79 12 2 -6 17 1 33 15 17 14 36 26 43 26 7 0 15 7 18 15 4 8 10 12 16 9 5 -3
12 3 14 13 8 29 42 47 60 32 12 -10 13 -9 8 5 -3 9 -2 16 3 16 5 0 9 9 10 20
1 11 -4 20 -13 20 -8 0 -14 -5 -14 -10 0 -7 -9 -6 -22 2 -13 7 -36 13 -53 14
-16 1 -50 6 -75 10 -40 7 -276 7 -595 1 -60 -2 -121 1 -135 6 -31 11 -157 7
-247 -8 -18 -3 -45 -7 -60 -9 -35 -5 -142 -31 -165 -41 -19 -7 -23 2 -10 20
14 21 67 52 80 48 6 -3 12 0 12 7 0 6 4 9 9 5 5 -3 12 -1 16 5 4 6 11 8 16 4
6 -3 17 2 24 12 8 11 15 14 15 7 0 -8 7 -8 29 0 17 6 28 15 25 19 -3 4 -1 8 5
8 5 0 13 -4 16 -10 10 -16 75 -12 81 5 5 12 10 13 20 4 11 -9 18 -8 29 1 8 6
19 9 25 5 6 -4 10 10 10 39 0 25 5 48 11 52 6 3 8 17 5 30 -4 15 -2 24 5 24 7
0 9 3 6 7 -4 3 -17 -2 -29 -13 -19 -17 -21 -17 -15 -1 10 26 -23 22 -63 -8z
m-29 -358 c-8 -8 -11 -7 -11 4 0 20 13 34 18 19 3 -7 -1 -17 -7 -23z"/>
<path d="M2120 2603 c-47 -19 -116 -97 -123 -140 -10 -57 -7 -83 5 -43 15 52
43 85 114 136 35 25 64 48 64 50 0 6 -42 3 -60 -3z"/>
<path d="M3121 2596 c-11 -13 -17 -14 -28 -4 -9 7 -6 -6 8 -31 22 -42 22 -44
4 -57 -17 -13 -13 -19 9 -15 5 1 6 -5 3 -13 -4 -9 0 -13 11 -11 9 2 22 4 29 4
19 1 57 63 56 90 0 18 1 20 4 7 4 -14 7 -16 13 -6 10 16 -10 39 -27 33 -7 -3
-13 -14 -13 -24 0 -10 -5 -19 -11 -19 -6 0 -9 7 -6 15 4 8 2 17 -3 20 -4 3
-10 -1 -13 -7 -3 -8 -8 -4 -14 10 -8 21 -10 22 -22 8z m38 -55 c0 -10 -2 -11
-6 -3 -2 6 -11 12 -19 12 -15 0 -19 12 -7 23 9 10 33 -13 32 -32z m8 -43 c-3
-8 -6 -5 -6 6 -1 11 2 17 5 13 3 -3 4 -12 1 -19z m-30 -20 c-3 -8 -6 -5 -6 6
-1 11 2 17 5 13 3 -3 4 -12 1 -19z"/>
<path d="M2746 2575 c-9 -14 -19 -38 -22 -55 -4 -16 -10 -27 -15 -24 -5 3 -6
-2 -3 -10 8 -20 18 -20 33 -2 7 8 26 14 42 14 17 -1 35 4 41 10 7 7 9 12 4 12
-4 0 0 10 8 22 18 26 21 47 5 31 -16 -16 -43 -5 -29 12 8 10 7 13 -4 11 -9 -1
-19 -5 -22 -9 -11 -11 -26 -8 -19 3 14 22 -4 8 -19 -15z m24 -28 c0 -7 -4 -6
-10 3 -8 12 -10 12 -10 1 0 -8 -3 -12 -6 -8 -9 9 6 28 17 22 5 -4 9 -12 9 -18z
m46 -12 c-3 -9 -11 -13 -16 -10 -8 5 -7 11 1 21 14 18 24 11 15 -11z"/>
<path d="M3257 2578 c-10 -10 -15 -24 -11 -30 5 -7 3 -8 -6 -3 -9 5 -10 2 -5
-14 5 -15 2 -21 -9 -21 -17 0 -22 -15 -7 -24 5 -4 12 0 14 6 3 8 6 6 6 -4 1
-21 12 -23 29 -6 8 8 15 8 26 -1 8 -7 17 -8 20 -3 4 6 21 7 42 2 48 -11 64 -4
64 29 0 20 2 23 10 11 5 -8 10 -26 10 -40 1 -22 2 -23 11 -7 8 14 14 16 24 7
8 -7 19 -9 25 -5 7 4 25 -6 42 -21 18 -17 32 -24 35 -18 2 7 13 10 23 7 18 -5
25 -21 21 -45 -2 -15 18 -8 28 10 9 15 12 15 20 2 8 -12 12 -10 20 10 7 18 10
20 10 8 1 -10 5 -18 10 -18 14 0 32 26 23 35 -4 5 1 5 11 2 11 -4 16 -3 12 3
-3 6 -1 10 5 10 16 0 2 40 -23 68 -15 16 -23 19 -28 10 -6 -9 -12 -9 -26 2
-37 31 -64 40 -91 34 -34 -9 -43 -23 -30 -48 6 -13 -1 -9 -16 9 l-26 30 5 -30
c3 -16 2 -23 -1 -15 -4 8 -16 23 -26 34 -15 14 -22 16 -28 6 -5 -9 -9 -9 -14
-1 -11 18 -26 13 -19 -6 6 -16 3 -15 -17 2 -18 15 -22 16 -18 4 4 -9 2 -22 -3
-30 -7 -11 -9 -9 -9 7 0 12 -7 25 -16 28 -22 8 -22 8 -27 -16 -3 -17 -5 -15
-6 9 0 17 -5 35 -11 38 -5 3 -7 0 -4 -9 4 -11 0 -14 -17 -11 -12 3 -25 8 -28
13 -3 4 -14 0 -24 -10z m20 -60 c-3 -7 -5 -2 -5 12 0 14 2 19 5 13 2 -7 2 -19
0 -25z"/>
<path d="M2980 2557 c0 -12 25 -62 40 -79 18 -22 40 -23 40 -2 0 8 5 12 10 9
16 -10 11 11 -6 26 -8 7 -13 21 -10 31 3 15 1 17 -8 9 -7 -6 -16 -7 -21 -3 -4
4 -5 -3 -2 -15 3 -13 1 -23 -4 -23 -5 0 -9 6 -9 14 0 7 -7 19 -15 26 -8 7 -15
10 -15 7z"/>
<path d="M3060 2531 c0 -10 19 -25 25 -20 1 2 -3 10 -11 17 -8 7 -14 8 -14 3z"/>
<path d="M1865 2497 c-4 -10 -5 -48 -1 -85 8 -72 58 -193 95 -226 30 -27 27
-4 -8 58 -35 62 -49 106 -66 200 -9 49 -15 66 -20 53z"/>
<path d="M1727 2301 c3 -12 10 -21 15 -21 13 0 6 32 -9 37 -7 3 -9 -3 -6 -16z"/>
<path d="M1829 2231 c6 -10 7 -21 4 -25 -3 -3 -1 -6 6 -6 8 0 11 6 7 16 -3 9
-6 20 -6 25 0 5 -5 9 -10 9 -7 0 -7 -6 -1 -19z"/>
<path d="M1860 2235 c0 -8 5 -15 10 -15 6 0 10 7 10 15 0 8 -4 15 -10 15 -5 0
-10 -7 -10 -15z"/>
<path d="M3247 2222 c-25 -27 -21 -36 5 -12 12 11 19 22 16 25 -2 3 -12 -3
-21 -13z"/>
<path d="M3103 2213 c-7 -3 -13 -12 -13 -21 0 -15 2 -15 17 1 18 18 16 27 -4
20z"/>
<path d="M2670 2190 c20 -13 33 -13 25 0 -3 6 -14 10 -23 10 -15 0 -15 -2 -2
-10z"/>
<path d="M1861 2164 c0 -11 3 -14 6 -6 3 7 2 16 -1 19 -3 4 -6 -2 -5 -13z"/>
<path d="M1886 2144 c-8 -22 -8 -24 8 -24 21 0 26 13 11 27 -10 10 -14 9 -19
-3z"/>
<path d="M3601 2094 c0 -11 3 -14 6 -6 3 7 2 16 -1 19 -3 4 -6 -2 -5 -13z"/>
<path d="M3020 2020 c0 -5 -7 -10 -16 -10 -8 0 -13 -4 -9 -9 3 -5 1 -12 -4
-15 -5 -3 -12 2 -15 11 -5 11 -10 13 -17 6 -6 -6 8 -27 42 -61 50 -50 94 -75
51 -29 -28 30 -29 51 -2 44 25 -6 36 8 14 17 -9 4 -14 9 -11 13 8 8 -11 43
-23 43 -6 0 -10 -4 -10 -10z m-5 -60 c3 -5 1 -10 -4 -10 -6 0 -11 5 -11 10 0
6 2 10 4 10 3 0 8 -4 11 -10z"/>
<path d="M2849 2011 c-1 -3 -1 -10 0 -14 1 -5 -3 -6 -8 -3 -11 7 -41 -32 -41
-52 0 -10 4 -11 13 -5 6 6 23 9 35 8 13 -1 26 4 29 12 3 7 9 10 14 7 5 -3 9 8
9 24 0 25 -4 30 -25 30 -14 0 -26 -3 -26 -7z"/>
<path d="M2910 1982 c0 -17 -3 -32 -7 -35 -5 -2 -2 -2 4 -1 7 2 22 -6 33 -18
11 -12 20 -17 20 -11 0 6 3 19 6 28 4 10 2 15 -6 13 -7 -2 -16 8 -19 21 -10
37 -31 38 -31 3z"/>
<path d="M2778 1993 c-10 -2 -18 -9 -18 -14 0 -14 16 -11 30 6 7 8 11 14 9 14
-2 -1 -12 -3 -21 -6z"/>
<path d="M3075 1990 c3 -5 11 -10 16 -10 6 0 7 5 4 10 -3 6 -11 10 -16 10 -6
0 -7 -4 -4 -10z"/>
<path d="M3110 1960 c0 -11 -5 -20 -12 -20 -6 0 -8 -3 -4 -7 4 -5 14 1 22 11
16 23 18 36 4 36 -5 0 -10 -9 -10 -20z"/>
<path d="M2130 1780 c0 -5 5 -10 11 -10 5 0 7 5 4 10 -3 6 -8 10 -11 10 -2 0
-4 -4 -4 -10z"/>
<path d="M2320 1720 c0 -5 5 -10 11 -10 5 0 7 5 4 10 -3 6 -8 10 -11 10 -2 0
-4 -4 -4 -10z"/>
<path d="M2875 1660 c-3 -5 -1 -10 4 -10 6 0 11 5 11 10 0 6 -2 10 -4 10 -3 0
-8 -4 -11 -10z"/>
<path d="M2775 1640 c-3 -6 1 -7 9 -4 18 7 21 14 7 14 -6 0 -13 -4 -16 -10z"/>
<path d="M3090 1605 c-7 -9 -8 -15 -2 -15 5 0 12 7 16 15 3 8 4 15 2 15 -2 0
-9 -7 -16 -15z"/>
<path d="M2883 1577 c-9 -19 -8 -24 3 -24 8 0 12 2 9 5 -2 3 0 13 6 23 5 11 6
19 1 19 -5 0 -14 -10 -19 -23z"/>
<path d="M2290 1579 c0 -5 5 -7 10 -4 6 3 10 8 10 11 0 2 -4 4 -10 4 -5 0 -10
-5 -10 -11z"/>
<path d="M2916 1542 c-9 -36 -6 -45 10 -34 5 4 7 21 4 37 l-6 30 -8 -33z"/>
<path d="M2957 1556 c-4 -10 -5 -21 -2 -24 9 -9 17 6 13 25 -3 17 -4 17 -11
-1z"/>
<path d="M2565 1540 c2 -14 4 -27 4 -30 2 -7 21 23 21 33 0 5 -4 6 -9 3 -5 -4
-12 0 -15 6 -2 7 -3 2 -1 -12z"/>
<path d="M2860 1516 c0 -31 6 -34 13 -6 3 11 1 23 -4 26 -5 3 -9 -6 -9 -20z"/>
<path d="M2928 1463 c-2 -18 -1 -33 4 -33 5 0 6 -6 2 -12 -6 -9 -3 -9 9 1 11
9 14 18 8 30 -5 9 -10 23 -13 31 -3 8 -7 0 -10 -17z"/>
<path d="M3060 1394 c0 -8 5 -12 10 -9 6 3 10 10 10 16 0 5 -4 9 -10 9 -5 0
-10 -7 -10 -16z"/>
<path d="M2936 1331 c-4 -7 -5 -15 -2 -18 9 -9 19 4 14 18 -4 11 -6 11 -12 0z"/>
<path d="M1670 544 c0 -8 5 -12 10 -9 6 3 10 10 10 16 0 5 -4 9 -10 9 -5 0
-10 -7 -10 -16z"/>
<path d="M1261 3152 c0 -23 10 -75 25 -115 14 -39 29 -103 33 -142 l8 -70 2
57 c1 39 -7 80 -25 130 -15 40 -30 98 -34 128 -7 53 -7 54 -9 12z"/>
<path d="M4599 2908 c0 -2 -3 -21 -5 -43 -3 -21 -14 -55 -26 -73 l-21 -34 22
7 c20 6 21 4 15 -22 -3 -15 -8 -55 -10 -88 -3 -40 -11 -69 -24 -87 -11 -16
-16 -28 -11 -28 14 0 47 50 55 85 8 32 17 285 10 285 -2 0 -4 -1 -5 -2z"/>
<path d="M4385 2840 c-3 -5 -1 -10 4 -10 6 0 11 5 11 10 0 6 -2 10 -4 10 -3 0
-8 -4 -11 -10z"/>
<path d="M1330 2788 c0 -50 38 -118 68 -118 8 0 3 13 -14 35 -14 19 -32 52
-40 72 -12 34 -13 35 -14 11z"/>
<path d="M1346 2630 c10 -81 32 -145 61 -170 l27 -25 -27 33 c-31 39 -45 97
-28 123 15 25 14 32 -4 25 -10 -3 -18 5 -25 27 -9 29 -9 28 -4 -13z"/>
<path d="M3070 855 c-10 -13 -9 -15 9 -15 11 0 21 4 21 9 0 18 -18 21 -30 6z"/>
<path d="M3478 653 c-10 -2 -18 -11 -18 -19 0 -8 8 -14 18 -15 14 0 14 -2 -3
-10 -12 -6 -26 -19 -33 -30 -10 -16 -10 -19 3 -19 8 0 15 5 15 11 0 5 4 7 10
4 15 -9 58 46 52 67 -4 18 -11 20 -44 11z"/>
<path d="M3427 613 c-4 -3 -7 -11 -7 -17 0 -6 5 -5 12 2 6 6 9 14 7 17 -3 3
-9 2 -12 -2z"/>
<path d="M3491 536 c-7 -8 -8 -17 -3 -20 6 -3 13 1 16 10 9 23 2 28 -13 10z"/>
<path d="M3460 430 c0 -5 5 -10 10 -10 6 0 10 5 10 10 0 6 -4 10 -10 10 -5 0
-10 -4 -10 -10z"/>
</g>
</svg>
